<?xml version="1.0" standalone="no"?>
<svg width="800" height="800" title="polygons" version="1.1" viewBox="-100 60 800 700" xmlns="http://www.w3.org/2000/svg" class="svg-paper">
    <!---->
    <g>
        <desc>pwidth:800;pheight:800;pcolor:;seed:1};sf:i+i*7;rf:10*sin(i/2);xf:400;yf:400;qt:40;sd:3;rn:0;minrd:75;maxrd:50;mina:180;maxa:360;cv:curveCardinalClosed;rd:false</desc>
        <path stroke="#0000005d" stroke-width="0.4mm" fill="none" d="M335.05,437.50C345.87,456.25,454.13,456.25,464.95,437.50C475.78,418.75,421.65,325,400,325C378.35,325,324.22,418.75,335.05,437.50" />
        <path stroke="#0000005d" stroke-width="0.4mm" fill="none" d="M331.84,447.36C345.51,467.04,464.89,457.03,475.10,435.35C485.30,413.67,416.94,315.29,393.06,317.29C369.19,319.29,318.17,427.69,331.84,447.36" />
        <path stroke="#0000005d" stroke-width="0.4mm" fill="none" d="M328.70,456.54C345.02,477.13,474.95,457.90,484.62,433.48C494.28,409.05,412.67,306.14,386.68,309.98C360.70,313.82,312.38,435.96,328.70,456.54" />
        <path stroke="#0000005d" stroke-width="0.4mm" fill="none" d="M324.13,463.60C342.49,485.50,483.23,460.75,493.01,433.90C502.80,407.05,411.00,297.55,382.85,302.50C354.70,307.45,305.77,441.70,324.13,463.60" />
        <path stroke="#0000005d" stroke-width="0.4mm" fill="none" d="M316.95,467.47C336.43,491.45,488.93,467.04,499.96,438.18C510.98,409.33,413.59,289.46,383.09,294.34C352.59,299.23,297.48,443.50,316.95,467.47" />
        <path stroke="#0000005d" stroke-width="0.4mm" fill="none" d="M306.95,467.57C326.45,494.43,491.53,477.13,505.05,446.80C518.56,416.48,421.03,282.17,388.01,285.63C354.99,289.09,287.44,440.71,306.95,467.57" />
        <path stroke="#0000005d" stroke-width="0.4mm" fill="none" d="M295.03,464.10C313.53,494.41,491.01,490.04,508.00,458.86C524.99,427.68,432.47,276.16,396.97,277.04C361.47,277.91,276.52,433.80,295.03,464.10" />
        <path stroke="#0000005d" stroke-width="0.4mm" fill="none" d="M282.76,458.44C299.62,492.28,488.35,503.85,509.23,472.32C530.11,440.79,445.76,271.56,408.02,269.25C370.27,266.93,265.89,424.59,282.76,458.44" />
        <path stroke="#0000005d" stroke-width="0.4mm" fill="none" d="M271.52,453.04C286.83,490.13,485.71,516.55,510.18,484.75C534.64,452.94,458.08,267.50,418.31,262.21C378.53,256.93,256.21,415.95,271.52,453.04" />
        <path stroke="#0000005d" stroke-width="0.4mm" fill="none" d="M262.06,450.82C276.73,490.64,485.83,526.66,512.98,494.05C540.13,461.43,466.78,262.34,424.96,255.13C383.14,247.93,247.39,411.00,262.06,450.82" />
        <path stroke="#0000005d" stroke-width="0.4mm" fill="none" d="M254.73,454.06C270.34,495.99,490.93,533.26,519.45,498.78C547.96,464.30,469.94,254.62,425.82,247.17C381.70,239.71,239.13,412.12,254.73,454.06" />
        <path stroke="#0000005d" stroke-width="0.4mm" fill="none" d="M249.90,463.54C268.24,506.88,501.73,535.77,530.08,498.22C558.44,460.67,466.72,244.01,420.02,238.23C373.32,232.45,231.55,420.21,249.90,463.54" />
        <path stroke="#0000005d" stroke-width="0.4mm" fill="none" d="M247.92,478.18C270.49,522.08,517.01,534.11,543.75,492.62C570.48,451.12,457.64,231.61,408.34,229.20C359.03,226.80,225.35,434.28,247.92,478.18" />
        <path stroke="#0000005d" stroke-width="0.4mm" fill="none" d="M248.45,495.26C275.95,539.00,534.13,529.31,558.27,483.62C582.41,437.93,444.92,219.19,393.28,221.13C341.64,223.07,220.95,451.51,248.45,495.26" />
        <path stroke="#0000005d" stroke-width="0.4mm" fill="none" d="M249.81,511.42C281.98,554.77,550.12,523.89,571.58,474.36C593.05,424.83,432.23,208.05,378.60,214.23C324.98,220.40,217.65,468.06,249.81,511.42" />
        <path stroke="#0000005d" stroke-width="0.4mm" fill="none" d="M249.27,523.72C284.99,567.23,562.68,521.36,582.51,468.67C602.33,415.99,423.76,198.43,368.22,207.61C312.68,216.78,213.56,480.21,249.27,523.72" />
        <path stroke="#0000005d" stroke-width="0.4mm" fill="none" d="M244.25,530.20C281.84,575.16,570.48,524.81,590.63,469.78C610.77,414.75,422.85,189.95,365.12,200.02C307.39,210.09,206.67,485.24,244.25,530.20" />
        <path stroke="#0000005d" stroke-width="0.4mm" fill="none" d="M233.70,529.86C271.18,577.87,572.78,535.56,595.61,479.09C618.45,422.62,431.01,182.58,370.69,191.05C310.37,199.51,196.21,481.85,233.70,529.86" />
        <path stroke="#0000005d" stroke-width="0.4mm" fill="none" d="M218.70,522.85C254.16,575.18,569.44,552.47,597.04,495.59C624.63,438.71,447.32,177.02,384.26,181.57C321.20,186.11,183.24,470.51,218.70,522.85" />
        <path stroke="#0000005d" stroke-width="0.4mm" fill="none" d="M201.94,510.91C233.96,568.09,561.58,572.38,595.08,516.07C628.59,459.75,468.50,173.88,402.98,173.02C337.45,172.16,169.92,453.74,201.94,510.91" />
        <path stroke="#0000005d" stroke-width="0.4mm" fill="none" d="M186.26,497.68C214.46,559.38,552.12,591.54,591.46,536.27C630.80,481.00,489.81,172.49,422.28,166.06C354.75,159.63,158.06,435.97,186.26,497.68" />
        <path stroke="#0000005d" stroke-width="0.4mm" fill="none" d="M173.45,487.89C198.82,553.29,545.44,606.93,589.39,552.25C633.34,497.58,506.49,170.59,437.16,159.86C367.84,149.13,148.08,422.49,173.45,487.89" />
        <path stroke="#0000005d" stroke-width="0.4mm" fill="none" d="M164.14,485.85C188.92,553.94,545.70,616.85,592.28,561.34C638.85,505.83,514.94,165.40,443.59,152.81C372.23,140.23,139.36,417.76,164.14,485.85" />
        <path stroke="#0000005d" stroke-width="0.4mm" fill="none" d="M158.60,493.85C185.70,563.54,555.17,620.44,601.98,562.13C648.78,503.82,513.32,155.40,439.42,144.02C365.52,132.64,131.51,424.17,158.60,493.85" />
        <path stroke="#0000005d" stroke-width="0.4mm" fill="none" d="M157.30,511.29C189.43,581.35,573.12,617.39,617.73,554.54C662.34,491.68,501.71,141.38,424.97,134.17C348.23,126.96,125.17,441.23,157.30,511.29" />
        <path stroke="#0000005d" stroke-width="0.4mm" fill="none" d="M160.27,534.73C199.16,603.94,596.06,608.53,636.55,540.25C677.04,471.96,482.56,125.94,403.18,125.02C323.80,124.10,121.37,465.53,160.27,534.73" />
        <path stroke="#0000005d" stroke-width="0.4mm" fill="none" d="M165.94,559.08C211.86,626.64,619.24,596.72,654.79,523.16C690.35,449.61,460.74,111.78,379.27,117.76C297.79,123.75,120.02,491.51,165.94,559.08" />
        <path stroke="#0000005d" stroke-width="0.4mm" fill="none" d="M170.81,579.31C222.57,645.47,638.47,586.74,669.88,508.83C701.30,430.92,442.49,100.11,359.31,111.86C276.13,123.60,119.05,513.15,170.81,579.31" />
        <path stroke="#0000005d" stroke-width="0.4mm" fill="none" d="M170.64,591.82C226.01,658.03,651.15,583.78,680.80,502.72C710.45,421.66,433.59,90.61,348.56,105.46C263.53,120.31,115.26,525.61,170.64,591.82" />
        <path stroke="#0000005d" stroke-width="0.4mm" fill="none" d="M162.60,594.65C218.79,663.18,656.02,591.20,687.27,508.27C718.53,425.34,437.57,82.68,350.13,97.08C262.68,111.47,106.41,526.12,162.60,594.65" />
        <path stroke="#0000005d" stroke-width="0.4mm" fill="none" d="M146.79,587.38C200.89,660.48,652.63,608.98,688.88,525.59C725.14,442.20,454.67,76.73,364.33,87.03C273.98,97.33,92.70,514.29,146.79,587.38" />
        <path stroke="#0000005d" stroke-width="0.4mm" fill="none" d="M126.27,571.47C175.77,650.49,641.68,633.69,685.36,551.32C729.04,468.94,481.54,73.85,388.36,77.21C295.18,80.57,76.77,492.46,126.27,571.47" />
        <path stroke="#0000005d" stroke-width="0.4mm" fill="none" d="M105.39,550.89C148.95,635.94,626.11,659.93,677.98,579.69C729.85,499.44,512.06,74.22,416.63,69.42C321.19,64.62,61.84,465.85,105.39,550.89" />
        <path stroke="#0000005d" stroke-width="0.4mm" fill="none" d="M87.68,531.82C125.73,621.98,611.26,682.61,670.32,604.57C729.37,526.54,539.11,75.74,442.01,63.61C344.90,51.49,49.63,441.66,87.68,531.82" />
        <path stroke="#0000005d" stroke-width="0.4mm" fill="none" d="M74.73,520.88C109.63,614.77,603.44,698.42,667.31,621.25C731.18,544.08,556.72,74.60,457.95,57.87C359.19,41.14,39.84,426.98,74.73,520.88" />
        <path stroke="#0000005d" stroke-width="0.4mm" fill="none" d="M66.93,522.84C102.39,618.98,607.38,705.81,672.91,627.03C738.45,548.25,561.15,67.50,460.16,50.13C359.16,32.77,31.47,426.69,66.93,522.84" />
        <path stroke="#0000005d" stroke-width="0.4mm" fill="none" d="M64.61,538.86C104.69,635.68,624.14,704.15,687.95,621.03C751.76,537.91,551.33,53.81,447.44,40.11C343.55,26.42,24.52,442.04,64.61,538.86" />
        <path stroke="#0000005d" stroke-width="0.4mm" fill="none" d="M68.20,565.97C116.11,661.76,650.65,693.75,709.64,604.36C768.63,514.98,529.07,36.06,422.16,29.66C315.26,23.26,20.28,470.19,68.20,565.97" />
        <path stroke="#0000005d" stroke-width="0.4mm" fill="none" d="M76.85,598.02C134.01,691.31,680.86,677.00,733.07,580.85C785.27,484.70,499.46,18.27,390.09,21.13C280.72,23.99,19.68,504.73,76.85,598.02" />
        <path stroke="#0000005d" stroke-width="0.4mm" fill="none" d="M87.13,627.78C152.88,718.09,708.35,659.17,753.69,557.07C799.03,454.96,470.27,3.37,359.18,15.16C248.08,26.94,21.38,537.46,87.13,627.78" />
    </g>
</svg>