<svg width="800" height="800" viewBox="-50 60 800 700" xmlns="http://www.w3.org/2000/svg" class="svg-paper"><path stroke="#0000005d" stroke-width="1.5" fill="none" d="M335 438c11 18 119 18 130 0 11-19-43-113-65-113s-76 94-65 113"/><path stroke="#0000005d" stroke-width="1.5" fill="none" d="M332 447c14 20 133 10 143-12 10-21-58-120-82-118s-75 111-61 130"/><path stroke="#0000005d" stroke-width="1.5" fill="none" d="M329 457c16 20 146 1 156-24 9-24-72-127-98-123s-75 126-58 147"/><path stroke="#0000005d" stroke-width="1.5" fill="none" d="M324 464c18 22 159-3 169-30s-82-136-110-131c-28 4-77 139-59 161"/><path stroke="#0000005d" stroke-width="1.5" fill="none" d="M317 467c19 24 172 0 183-29s-86-149-117-144c-30 5-86 150-66 173"/><path stroke="#0000005d" stroke-width="1.5" fill="none" d="M307 468c19 26 185 9 198-21 14-31-84-165-117-161-33 3-101 155-81 182"/><path stroke="#0000005d" stroke-width="1.5" fill="none" d="M295 464c19 30 196 26 213-5s-76-183-111-182c-36 1-120 157-102 187"/><path stroke="#0000005d" stroke-width="1.5" fill="none" d="M283 458c17 34 205 46 226 14 21-31-63-200-101-203-38-2-142 156-125 189"/><path stroke="#0000005d" stroke-width="1.5" fill="none" d="M272 453c15 37 214 64 238 32 25-32-52-217-92-223-39-5-162 154-146 191"/><path stroke="#0000005d" stroke-width="1.5" fill="none" d="M262 451c15 40 224 76 251 43s-46-232-88-239-178 156-163 196"/><path stroke="#0000005d" stroke-width="1.5" fill="none" d="M255 454c15 42 236 79 264 45 29-35-49-244-93-252-44-7-187 165-171 207"/><path stroke="#0000005d" stroke-width="1.5" fill="none" d="M250 464c18 43 252 72 280 34 28-37-63-254-110-260S232 420 250 464"/><path stroke="#0000005d" stroke-width="1.5" fill="none" d="M248 478c22 44 269 56 296 15 26-42-86-261-136-264-49-2-183 205-160 249"/><path stroke="#0000005d" stroke-width="1.5" fill="none" d="M248 495c28 44 286 34 310-11 24-46-113-265-165-263-51 2-172 231-145 274"/><path stroke="#0000005d" stroke-width="1.5" fill="none" d="M250 511c32 44 300 13 322-37 21-49-140-266-193-260-54 6-161 254-129 297"/><path stroke="#0000005d" stroke-width="1.5" fill="none" d="M249 524c36 43 314-3 334-55 19-53-159-271-215-261-55 9-154 272-119 316"/><path stroke="#0000005d" stroke-width="1.5" fill="none" d="M244 530c38 45 326-5 347-60 20-55-168-280-226-270S207 485 244 530"/><path stroke="#0000005d" stroke-width="1.5" fill="none" d="M234 530c37 48 339 6 362-51 22-56-165-296-225-288-61 9-175 291-137 339"/><path stroke="#0000005d" stroke-width="1.5" fill="none" d="M219 523c35 52 350 29 378-27 28-57-150-319-213-314-63 4-201 289-165 341"/><path stroke="#0000005d" stroke-width="1.5" fill="none" d="M202 511c32 57 360 61 393 5 34-56-126-342-192-343S170 454 202 511"/><path stroke="#0000005d" stroke-width="1.5" fill="none" d="M186 498c28 61 366 94 405 38 40-55-101-364-169-370-67-6-264 270-236 332"/><path stroke="#0000005d" stroke-width="1.5" fill="none" d="M173 488c26 65 372 119 416 64 44-54-83-381-152-392S148 422 173 488"/><path stroke="#0000005d" stroke-width="1.5" fill="none" d="M164 486c25 68 382 131 428 75 47-55-77-396-148-408-72-13-305 265-280 333"/><path stroke="#0000005d" stroke-width="1.5" fill="none" d="M159 494c27 70 396 126 443 68s-89-407-163-418c-73-11-307 280-280 350"/><path stroke="#0000005d" stroke-width="1.5" fill="none" d="M157 511c32 70 416 106 461 44 44-63-116-414-193-421S125 441 157 511"/><path stroke="#0000005d" stroke-width="1.5" fill="none" d="M160 535c39 69 436 74 477 5 40-68-154-414-234-415-79-1-282 341-243 410"/><path stroke="#0000005d" stroke-width="1.5" fill="none" d="M166 559c46 68 453 38 489-36 35-73-194-411-276-405-81 6-259 374-213 441"/><path stroke="#0000005d" stroke-width="1.5" fill="none" d="M171 579c52 66 467 8 499-70 31-78-228-409-311-397S119 513 171 579"/><path stroke="#0000005d" stroke-width="1.5" fill="none" d="M171 592c55 66 480-8 510-89 29-81-247-412-332-398-85 15-234 421-178 487"/><path stroke="#0000005d" stroke-width="1.5" fill="none" d="M163 595c56 68 493-4 524-87 32-83-249-425-337-411-87 14-244 429-187 498"/><path stroke="#0000005d" stroke-width="1.5" fill="none" d="M147 587c54 73 506 22 542-61 36-84-234-449-325-439-90 10-271 427-217 500"/><path stroke="#0000005d" stroke-width="1.5" fill="none" d="M126 571c50 79 516 63 559-20 44-82-203-477-297-474-93 4-311 415-262 494"/><path stroke="#0000005d" stroke-width="1.5" fill="none" d="M105 551c44 85 521 109 573 29 52-81-166-506-261-511-96-4-355 397-312 482"/><path stroke="#0000005d" stroke-width="1.5" fill="none" d="M88 532c38 90 523 151 582 73S539 76 442 64C345 51 50 442 88 532"/><path stroke="#0000005d" stroke-width="1.5" fill="none" d="M75 521c35 94 528 177 592 100S557 75 458 58 40 427 75 521"/><path stroke="#0000005d" stroke-width="1.5" fill="none" d="M67 523c35 96 540 183 606 104 65-79-112-559-213-577C359 33 31 427 67 523"/><path stroke="#0000005d" stroke-width="1.5" fill="none" d="M65 539c40 97 559 165 623 82S551 54 447 40C344 26 25 442 65 539"/><path stroke="#0000005d" stroke-width="1.5" fill="none" d="M68 566c48 96 583 128 642 38 59-89-181-568-288-574C315 23 20 470 68 566"/><path stroke="#0000005d" stroke-width="1.5" fill="none" d="M77 598c57 93 604 79 656-17S499 18 390 21 20 505 77 598"/><path stroke="#0000005d" stroke-width="1.5" fill="none" d="M87 628c66 90 621 31 667-71C799 455 470 3 359 15S21 537 87 628"/></svg>