<svg width="800" height="800" viewBox="-80 80 900 900" xmlns="http://www.w3.org/2000/svg" class="svg-paper"><path stroke="#0000005d" stroke-width="1.5" fill="none" d="M325 400c0 18 58 75 75 75 18 0 75-57 75-75 0-17-57-75-75-75-17 0-75 58-75 75"/><path stroke="#0000005d" stroke-width="1.5" fill="none" d="M317 407c2 19 71 77 90 76 19-2 77-71 76-90-2-19-71-77-90-76-19 2-77 71-76 90"/><path stroke="#0000005d" stroke-width="1.5" fill="none" d="M310 413c3 21 82 80 103 77s80-82 77-103-82-80-103-77-80 82-77 103"/><path stroke="#0000005d" stroke-width="1.5" fill="none" d="M303 417c4 23 91 85 114 81s85-92 81-115-92-84-115-80-84 91-80 114"/><path stroke="#0000005d" stroke-width="1.5" fill="none" d="M294 417c4 25 98 93 123 89s93-98 89-123-98-93-123-89-93 98-89 123"/><path stroke="#0000005d" stroke-width="1.5" fill="none" d="M286 412c2 27 99 105 126 102 27-2 105-99 102-126-2-27-99-105-126-102-27 2-105 99-102 126"/><path stroke="#0000005d" stroke-width="1.5" fill="none" d="M277 403c1 29 97 121 126 120s121-97 120-126-97-121-126-120-121 97-120 126"/><path stroke="#0000005d" stroke-width="1.5" fill="none" d="M269 392c-2 30 92 137 123 139 30 2 137-92 139-123 2-30-92-137-123-139-30-2-137 92-139 123"/><path stroke="#0000005d" stroke-width="1.5" fill="none" d="M262 382c-4 32 88 152 120 156s152-88 156-120-88-152-120-156-152 88-156 120"/><path stroke="#0000005d" stroke-width="1.5" fill="none" d="M255 375c-6 34 86 164 120 170s164-86 170-120-86-164-120-170-164 86-170 120"/><path stroke="#0000005d" stroke-width="1.5" fill="none" d="M247 374c-6 36 92 173 127 179 36 6 173-92 179-127 6-36-92-173-127-179-36-6-173 92-179 127"/><path stroke="#0000005d" stroke-width="1.5" fill="none" d="M238 380c-4 38 104 177 142 182 38 4 177-104 182-142 4-38-104-177-142-182-38-4-177 104-182 142"/><path stroke="#0000005d" stroke-width="1.5" fill="none" d="M229 392c-2 40 123 177 163 179s177-123 179-163-123-177-163-179-177 123-179 163"/><path stroke="#0000005d" stroke-width="1.5" fill="none" d="M221 407c2 41 144 173 186 172 41-2 173-144 172-186-2-41-144-173-186-172-41 2-173 144-172 186"/><path stroke="#0000005d" stroke-width="1.5" fill="none" d="M214 421c5 44 164 170 207 165 44-5 170-164 165-207-5-44-164-170-207-165-44 5-170 164-165 207"/><path stroke="#0000005d" stroke-width="1.5" fill="none" d="M208 432c7 45 179 168 224 160 45-7 168-179 160-224-7-45-179-168-224-160-45 7-168 179-160 224"/><path stroke="#0000005d" stroke-width="1.5" fill="none" d="M200 435c8 47 188 173 235 165s173-188 165-235-188-173-235-165-173 188-165 235"/><path stroke="#0000005d" stroke-width="1.5" fill="none" d="M191 429c7 49 190 187 238 180 49-7 187-190 180-238-7-49-190-187-238-180-49 7-187 190-180 238"/><path stroke="#0000005d" stroke-width="1.5" fill="none" d="M182 416c3 51 183 206 234 202 51-3 206-183 202-234-3-51-183-206-234-202-51 3-206 183-202 234"/><path stroke="#0000005d" stroke-width="1.5" fill="none" d="M173 397c-1 53 171 229 224 230s229-171 230-224-171-229-224-230-229 171-230 224"/><path stroke="#0000005d" stroke-width="1.5" fill="none" d="M166 378c-5 54 157 251 212 256 54 5 251-157 256-212 5-54-157-251-212-256-54-5-251 157-256 212"/><path stroke="#0000005d" stroke-width="1.5" fill="none" d="M160 363c-9 56 147 268 203 277s268-147 277-203-147-268-203-277-268 147-277 203"/><path stroke="#0000005d" stroke-width="1.5" fill="none" d="M153 356c-10 58 146 281 203 291 58 10 281-146 291-203 10-58-146-281-203-291-58-10-281 146-291 203"/><path stroke="#0000005d" stroke-width="1.5" fill="none" d="M144 361c-9 59 157 286 217 295 59 9 286-157 295-217 9-59-157-286-217-295-59-9-286 157-295 217"/><path stroke="#0000005d" stroke-width="1.5" fill="none" d="M134 375c-6 62 179 285 241 291s285-179 291-241-179-285-241-291-285 179-291 241"/><path stroke="#0000005d" stroke-width="1.5" fill="none" d="M125 397c-1 64 208 277 272 278s277-208 278-272-208-277-272-278-277 208-278 272"/><path stroke="#0000005d" stroke-width="1.5" fill="none" d="M118 421c5 66 237 266 303 261s266-237 261-303-237-266-303-261-266 237-261 303"/><path stroke="#0000005d" stroke-width="1.5" fill="none" d="M112 441c9 67 261 257 329 247 67-9 257-261 247-329-9-67-261-257-329-247-67 9-257 261-247 329"/><path stroke="#0000005d" stroke-width="1.5" fill="none" d="M105 451c12 69 278 256 346 244 69-12 256-278 244-346-12-69-278-256-346-244-69 12-256 278-244 346"/><path stroke="#0000005d" stroke-width="1.5" fill="none" d="M97 450c12 71 282 265 353 253s265-282 253-353S421 85 350 97 85 379 97 450"/><path stroke="#0000005d" stroke-width="1.5" fill="none" d="M87 436c8 73 276 285 349 277s285-276 277-349S437 79 364 87 79 363 87 436"/><path stroke="#0000005d" stroke-width="1.5" fill="none" d="M77 412c3 75 259 314 335 311 75-3 314-259 311-335-3-75-259-314-335-311-75 3-314 259-311 335"/><path stroke="#0000005d" stroke-width="1.5" fill="none" d="M69 383c-3 78 237 344 314 348 78 3 344-237 348-314 3-78-237-344-314-348-78-3-344 237-348 314"/></svg>