<svg width="800" height="800" viewBox="-100 160 1200 1000" xmlns="http://www.w3.org/2000/svg" class="svg-paper"><path stroke="#0000005d" stroke-width="1.5" fill="none" d="M329 377c-4 11 17 77 27 84s78 7 88 0 31-73 27-84c-3-11-59-52-71-52s-68 41-71 52"/><path stroke="#0000005d" stroke-width="1.5" fill="none" d="M319 381c-3 13 27 83 38 90s87 0 97-8c10-9 28-83 23-95-6-12-71-52-84-51s-71 51-74 64"/><path stroke="#0000005d" stroke-width="1.5" fill="none" d="M310 385c-2 14 35 89 48 96 13 6 95-6 106-16 10-10 24-93 18-105-7-13-81-52-95-50-15 2-74 61-77 75"/><path stroke="#0000005d" stroke-width="1.5" fill="none" d="M302 386c-2 16 40 96 55 103 14 7 103-9 114-20s24-102 16-115c-7-14-89-54-104-51-16 2-79 68-81 83"/><path stroke="#0000005d" stroke-width="1.5" fill="none" d="M294 383c-2 17 42 105 58 112 15 8 112-7 124-19s27-110 19-125c-7-15-95-59-112-57-17 3-86 73-89 89"/><path stroke="#0000005d" stroke-width="1.5" fill="none" d="M288 376c-4 18 39 114 54 124 16 9 121-2 135-15 13-12 35-115 28-132-7-16-99-69-117-67s-97 72-100 90"/><path stroke="#0000005d" stroke-width="1.5" fill="none" d="M282 365c-5 19 32 125 48 136s129 9 145-3c15-12 47-120 41-139-6-18-100-82-119-82-20 1-109 69-115 88"/><path stroke="#0000005d" stroke-width="1.5" fill="none" d="M278 352c-7 19 23 136 39 149s136 21 153 9c18-11 62-123 57-143s-98-96-119-98c-21-1-122 64-130 83"/><path stroke="#0000005d" stroke-width="1.5" fill="none" d="M275 340c-10 20 13 146 29 161s143 32 162 21c20-10 75-125 71-147s-97-110-119-113-134 58-143 78"/><path stroke="#0000005d" stroke-width="1.5" fill="none" d="M270 332c-11 20 8 154 25 171 16 16 149 39 170 29s84-130 80-153c-3-23-97-120-120-124s-144 56-155 77"/><path stroke="#0000005d" stroke-width="1.5" fill="none" d="M263 328c-12 22 9 163 26 180 17 18 158 42 180 31s88-137 84-162c-3-24-103-126-127-130s-152 59-163 81"/><path stroke="#0000005d" stroke-width="1.5" fill="none" d="M252 331c-11 23 18 170 37 188s167 36 190 24c23-13 86-149 81-174S446 241 420 238s-157 70-168 93"/><path stroke="#0000005d" stroke-width="1.5" fill="none" d="M240 339c-9 26 32 177 53 194s178 25 201 10c22-15 78-162 71-188S435 231 408 229c-27-1-158 85-168 110"/><path stroke="#0000005d" stroke-width="1.5" fill="none" d="M228 351c-8 27 49 182 72 198 24 15 188 9 211-8 22-18 67-176 57-203a449 449 0 0 0-175-117c-28 1-157 103-165 130"/><path stroke="#0000005d" stroke-width="1.5" fill="none" d="M217 363c-6 29 65 185 91 200 26 14 197-5 219-25 21-20 55-189 43-216a469 469 0 0 0-191-108c-30 4-156 120-162 149"/><path stroke="#0000005d" stroke-width="1.5" fill="none" d="M207 371c-4 30 78 189 106 203 27 14 204-15 226-37s48-199 34-227a489 489 0 0 0-205-102c-30 5-156 132-161 163"/><path stroke="#0000005d" stroke-width="1.5" fill="none" d="M199 371c-5 32 83 197 112 211s212-18 235-41c22-23 48-208 33-236a509 509 0 0 0-214-105c-32 6-161 140-166 171"/><path stroke="#0000005d" stroke-width="1.5" fill="none" d="M192 363c-6 33 79 208 109 223 29 16 221-11 246-34 24-23 57-214 43-244a529 529 0 0 0-219-117c-33 5-173 139-179 172"/><path stroke="#0000005d" stroke-width="1.5" fill="none" d="M187 347c-8 34 68 221 97 239 30 18 231 4 257-19 27-22 75-217 62-249a549 549 0 0 0-219-136c-34 2-188 132-197 165"/><path stroke="#0000005d" stroke-width="1.5" fill="none" d="M185 327c-12 34 50 233 79 255 29 21 238 24 267 3 29-20 96-218 86-252a569 569 0 0 0-214-160c-36 0-206 120-218 154"/><path stroke="#0000005d" stroke-width="1.5" fill="none" d="M184 307c-14 34 33 245 60 269 28 25 243 45 275 26 33-19 118-217 110-253S459 170 422 166c-37-3-223 106-238 141"/><path stroke="#0000005d" stroke-width="1.5" fill="none" d="M183 290c-17 35 18 255 46 282 27 28 248 62 282 44 34-17 135-217 129-255S475 166 437 160s-237 96-254 130"/><path stroke="#0000005d" stroke-width="1.5" fill="none" d="M178 282c-18 35 14 264 41 292 28 29 255 69 291 52 36-18 144-222 139-261-6-39-166-205-205-212-40-7-247 94-266 129"/><path stroke="#0000005d" stroke-width="1.5" fill="none" d="M169 283c-19 37 19 272 49 301 29 29 264 65 301 46 36-19 143-231 137-272-7-40-176-208-217-214-40-6-252 103-270 139"/><path stroke="#0000005d" stroke-width="1.5" fill="none" d="M155 294c-17 39 37 278 69 306 31 28 276 51 312 30 36-22 134-247 125-288-10-42-194-204-236-208S172 255 155 294"/><path stroke="#0000005d" stroke-width="1.5" fill="none" d="M139 312c-13 41 62 283 97 309s288 29 323 3c36-25 117-264 104-306S447 126 403 125c-43 0-250 146-264 187"/><path stroke="#0000005d" stroke-width="1.5" fill="none" d="M125 333c-11 43 88 284 126 308 38 23 297 4 332-25 34-29 96-281 79-323-17-41-238-179-283-175-44 3-243 171-254 215"/><path stroke="#0000005d" stroke-width="1.5" fill="none" d="M113 350c-8 45 110 285 151 307 40 22 305-16 338-48s80-295 59-337c-20-41-256-167-302-160-45 6-238 192-246 238"/><path stroke="#0000005d" stroke-width="1.5" fill="none" d="M104 358c-7 47 122 290 164 311 43 20 314-27 347-61s71-306 49-348S395 97 349 105c-47 9-238 206-245 253"/><path stroke="#0000005d" stroke-width="1.5" fill="none" d="M96 354c-7 48 123 299 166 320 44 22 322-24 356-58 35-35 77-314 55-357-23-43-275-170-323-162S104 306 96 354"/><path stroke="#0000005d" stroke-width="1.5" fill="none" d="M91 337c-10 49 110 313 154 337 43 25 331-8 368-42 37-33 94-317 74-363-21-45-273-188-323-182-49 6-263 201-273 250"/><path stroke="#0000005d" stroke-width="1.5" fill="none" d="M89 311c-14 50 88 328 131 357 42 29 339 18 379-14 40-31 122-317 104-365-17-48-263-214-315-212-51 2-285 185-299 234"/><path stroke="#0000005d" stroke-width="1.5" fill="none" d="M91 282c-19 49 60 343 101 376s345 48 389 19c44-28 152-313 139-363-14-51-251-242-303-245-53-2-308 164-326 213"/><path stroke="#0000005d" stroke-width="1.5" fill="none" d="M93 256c-23 49 36 355 75 391 40 37 349 76 396 50s179-308 169-361S495 70 442 64c-53-7-326 143-349 192"/><path stroke="#0000005d" stroke-width="1.5" fill="none" d="M93 239c-26 49 21 364 59 404 38 39 353 92 402 68 49-25 197-307 189-362-8-54-231-282-285-291S118 190 93 239"/><path stroke="#0000005d" stroke-width="1.5" fill="none" d="M86 235c-26 49 20 372 60 413 39 40 361 95 411 70 50-24 202-313 194-369S516 60 460 50c-55-9-348 135-374 185"/><path stroke="#0000005d" stroke-width="1.5" fill="none" d="M72 244c-24 52 36 380 78 419 42 40 373 83 423 56 51-27 194-329 184-385-11-57-253-286-310-294-57-7-350 152-375 204"/><path stroke="#0000005d" stroke-width="1.5" fill="none" d="M55 264c-22 55 64 385 109 423 46 37 386 57 436 26 49-32 174-349 159-406S481 33 422 30C363 26 76 210 55 264"/><path stroke="#0000005d" stroke-width="1.5" fill="none" d="M37 292c-17 58 99 386 148 420 50 34 398 25 446-11 47-37 146-371 126-428-20-56-307-253-367-252-60 2-336 214-353 271"/><path stroke="#0000005d" stroke-width="1.5" fill="none" d="M21 320C9 380 154 705 207 735c53 31 407-7 452-48 46-41 119-389 94-445S420 9 359 15C298 22 34 260 21 320"/></svg>